<svg width="32" height="32" viewBox="0 0 32 32" fill="none" xmlns="http://www.w3.org/2000/svg">
<circle cx="16" cy="16" r="16" fill="url(#paint0_linear_5_33)"/>
<path d="M2.61985 22.452C2.74118 22.114 2.94918 21.542 3.24385 20.736C3.53852 19.9213 3.87652 18.9897 4.25785 17.941C4.63919 16.8837 5.02052 15.8307 5.40185 14.782C5.43652 14.704 5.46685 14.626 5.49285 14.548C5.51885 14.47 5.54485 14.3963 5.57085 14.327C5.59685 14.249 5.62285 14.171 5.64885 14.093C5.69218 13.989 5.73118 13.885 5.76585 13.781C5.80919 13.6683 5.84819 13.56 5.88285 13.456C5.98685 13.1787 6.08652 12.91 6.18185 12.65C6.27719 12.3813 6.36819 12.1257 6.45485 11.883C6.48952 11.805 6.51985 11.7313 6.54585 11.662C6.57185 11.584 6.59785 11.5103 6.62385 11.441C6.64985 11.363 6.67585 11.2893 6.70185 11.22C6.74518 11.09 6.78852 10.9687 6.83185 10.856C6.88385 10.7347 6.92719 10.6177 6.96185 10.505C7.10052 10.141 7.20885 9.85067 7.28685 9.634C7.37352 9.40867 7.42119 9.27867 7.42985 9.244C7.70719 8.52467 8.12319 7.99167 8.67785 7.645C9.23252 7.28967 9.86518 7.12067 10.5759 7.138C11.3212 7.14667 11.9625 7.34167 12.4999 7.723C13.0372 8.10433 13.3752 8.68067 13.5139 9.452C13.5312 9.556 13.5485 9.66 13.5659 9.764C13.5919 9.868 13.6092 9.972 13.6179 10.076C12.5779 10.18 11.8759 10.3187 11.5119 10.492C11.1479 10.6567 10.9659 10.8907 10.9659 11.194C10.9659 11.5667 11.0915 11.8093 11.3429 11.922C11.6029 12.026 11.9539 12.052 12.3959 12C12.8465 11.948 13.3579 11.87 13.9299 11.766C13.9819 12.026 14.0339 12.286 14.0859 12.546C14.1379 12.806 14.1812 13.066 14.2159 13.326C13.4099 13.43 12.8422 13.5643 12.5129 13.729C12.1922 13.8937 12.0319 14.1407 12.0319 14.47C12.0319 14.8513 12.1575 15.094 12.4089 15.198C12.6602 15.302 12.9765 15.328 13.3579 15.276C13.7392 15.2153 14.1292 15.1287 14.5279 15.016C14.7012 15.8827 14.8702 16.7493 15.0349 17.616C15.1995 18.4827 15.3599 19.345 15.5159 20.203C15.6719 21.061 15.8279 21.919 15.9839 22.777C16.1399 23.6263 16.2872 24.4713 16.4259 25.312C16.5212 25.7887 16.4692 26.157 16.2699 26.417C16.0705 26.6857 15.8279 26.82 15.5419 26.82C15.3252 26.82 15.1042 26.7377 14.8789 26.573C14.6535 26.4083 14.4759 26.1527 14.3459 25.806C13.6439 23.8647 12.9462 21.8627 12.2529 19.8C11.5595 17.7287 10.8792 15.77 10.2119 13.924C10.0299 13.4127 9.84785 13.0443 9.66585 12.819C9.49252 12.585 9.24985 12.468 8.93785 12.468C8.64319 12.468 8.39619 12.572 8.19685 12.78C8.00619 12.988 7.83719 13.378 7.68985 13.95C7.29119 15.4927 6.89685 17.0613 6.50685 18.656C6.11685 20.2507 5.73118 21.7847 5.34985 23.258C5.21985 23.7347 5.01619 24.0813 4.73885 24.298C4.46152 24.506 4.17119 24.61 3.86785 24.61C3.31318 24.61 2.91452 24.402 2.67185 23.986C2.42918 23.5613 2.41185 23.05 2.61985 22.452ZM5.24585 18.474L5.73985 16.836C6.14719 16.8187 6.54585 16.81 6.93585 16.81C7.33452 16.81 7.73319 16.8187 8.13185 16.836C8.72985 16.862 9.17619 16.9357 9.47085 17.057C9.77419 17.1783 9.92585 17.434 9.92585 17.824C9.92585 18.1967 9.79585 18.4523 9.53585 18.591C9.27585 18.721 8.77318 18.7687 8.02785 18.734C7.55985 18.708 7.09185 18.6733 6.62385 18.63C6.16452 18.578 5.70519 18.526 5.24585 18.474ZM5.50585 21.828C5.10719 21.776 4.78652 21.6677 4.54385 21.503C4.30118 21.3383 4.17985 21.126 4.17985 20.866C4.17985 20.4587 4.33585 20.203 4.64785 20.099C4.96852 19.995 5.34985 19.9647 5.79185 20.008C6.92719 20.0947 8.11452 20.1987 9.35385 20.32C10.6019 20.4327 11.8412 20.554 13.0719 20.684L13.5919 22.66C12.1359 22.53 10.7145 22.3957 9.32785 22.257C7.94985 22.1097 6.67585 21.9667 5.50585 21.828ZM6.33785 13.014C5.75719 12.7713 5.28919 12.559 4.93385 12.377C4.58719 12.1863 4.33585 12.0043 4.17985 11.831C4.02385 11.6577 3.94585 11.4713 3.94585 11.272C3.94585 10.8647 4.09319 10.6177 4.38785 10.531C4.68252 10.4357 5.06819 10.453 5.54485 10.583C6.03019 10.7043 6.54152 10.882 7.07885 11.116L6.33785 13.014ZM5.42785 16.03C4.74319 15.8393 4.19718 15.6703 3.78985 15.523C3.39118 15.3757 3.10518 15.2283 2.93185 15.081C2.75852 14.925 2.67185 14.7473 2.67185 14.548C2.67185 14.132 2.81918 13.8807 3.11385 13.794C3.40852 13.6987 3.79852 13.7117 4.28385 13.833C4.77785 13.9457 5.31519 14.106 5.89585 14.314L5.42785 16.03ZM12.7339 18.604L12.3439 16.654C12.7859 16.576 13.1412 16.5413 13.4099 16.55C13.6872 16.55 13.8865 16.6453 14.0079 16.836C14.1292 17.018 14.1899 17.3387 14.1899 17.798C14.1899 18.1187 14.0685 18.3223 13.8259 18.409C13.5832 18.4957 13.2192 18.5607 12.7339 18.604ZM13.6699 22.764L13.2799 20.684C13.7305 20.5887 14.0902 20.5497 14.3589 20.567C14.6275 20.5843 14.8225 20.697 14.9439 20.905C15.0652 21.113 15.1259 21.4553 15.1259 21.932C15.1259 22.2787 15.0045 22.4997 14.7619 22.595C14.5192 22.6817 14.1552 22.738 13.6699 22.764ZM23.0361 24.974C22.1955 24.974 21.4458 24.844 20.7871 24.584C20.1285 24.324 19.5695 23.986 19.1101 23.57C18.6508 23.1453 18.2998 22.6947 18.0571 22.218C17.8231 21.7327 17.7061 21.2733 17.7061 20.84C17.7061 20.5367 17.7798 20.3157 17.9271 20.177C18.0745 20.0297 18.2521 19.956 18.4601 19.956C18.6941 19.956 18.8761 20.0167 19.0061 20.138C19.1361 20.2507 19.2575 20.45 19.3701 20.736C19.4828 21.0047 19.6518 21.3297 19.8771 21.711C20.1111 22.0837 20.4361 22.413 20.8521 22.699C21.2681 22.985 21.8055 23.128 22.4641 23.128C23.0275 23.128 23.4781 22.959 23.8161 22.621C24.1628 22.2743 24.3361 21.802 24.3361 21.204C24.3361 20.684 24.2278 20.2377 24.0111 19.865C23.7945 19.4923 23.5041 19.163 23.1401 18.877C22.7848 18.5823 22.3905 18.2963 21.9571 18.019C21.5325 17.7417 21.1035 17.4427 20.6701 17.122C20.2455 16.7927 19.8511 16.407 19.4871 15.965C19.1318 15.523 18.8458 14.99 18.6291 14.366C18.4125 13.742 18.3041 12.988 18.3041 12.104C18.3041 11.064 18.5208 10.1237 18.9541 9.283C19.3961 8.44233 20.0461 7.775 20.9041 7.281C21.7708 6.787 22.8368 6.54 24.1021 6.54C24.7695 6.54 25.3631 6.605 25.8831 6.735C26.4031 6.865 26.8451 7.03833 27.2091 7.255C27.5818 7.47167 27.8635 7.71 28.0541 7.97C28.2448 8.23 28.3401 8.49 28.3401 8.75C28.3401 9.036 28.2751 9.26567 28.1451 9.439C28.0151 9.60367 27.8115 9.686 27.5341 9.686C27.2915 9.686 27.0661 9.621 26.8581 9.491C26.6501 9.361 26.4205 9.20933 26.1691 9.036C25.9178 8.86267 25.6058 8.711 25.2331 8.581C24.8691 8.451 24.3968 8.386 23.8161 8.386C22.7935 8.386 22.0135 8.646 21.4761 9.166C20.9388 9.67733 20.6701 10.3187 20.6701 11.09C20.6701 11.7313 20.8261 12.247 21.1381 12.637C21.4501 13.027 21.8661 13.3433 22.3861 13.586C22.9061 13.82 23.4738 14.0323 24.0891 14.223C24.7045 14.405 25.3198 14.613 25.9351 14.847C26.5505 15.081 27.1181 15.3843 27.6381 15.757C28.1581 16.1297 28.5741 16.6237 28.8861 17.239C29.1981 17.8457 29.3541 18.63 29.3541 19.592C29.3541 20.5453 29.1808 21.3643 28.8341 22.049C28.4961 22.725 28.0325 23.2797 27.4431 23.713C26.8538 24.1463 26.1778 24.467 25.4151 24.675C24.6611 24.8743 23.8681 24.974 23.0361 24.974ZM26.5461 22.244C27.1355 22.244 27.4301 21.958 27.4301 21.386C27.4301 21.1607 27.3608 20.983 27.2221 20.853C27.0835 20.723 26.8841 20.658 26.6241 20.658C26.3555 20.658 26.1561 20.7187 26.0261 20.84C25.9048 20.9613 25.8441 21.1607 25.8441 21.438C25.8441 21.7067 25.9135 21.9103 26.0521 22.049C26.1995 22.179 26.3641 22.244 26.5461 22.244ZM26.6241 19.514C26.8755 19.514 27.0835 19.4317 27.2481 19.267C27.4215 19.1023 27.5081 18.89 27.5081 18.63C27.5081 18.266 27.4215 17.9973 27.2481 17.824C27.0835 17.6507 26.8841 17.564 26.6501 17.564C26.2775 17.564 26.0001 17.642 25.8181 17.798C25.6448 17.9453 25.5581 18.214 25.5581 18.604C25.5581 18.8727 25.6491 19.0937 25.8311 19.267C26.0131 19.4317 26.2775 19.514 26.6241 19.514ZM24.2581 17.538C24.5441 17.538 24.7478 17.4643 24.8691 17.317C24.9991 17.161 25.0641 16.9487 25.0641 16.68C25.0641 16.498 24.9948 16.342 24.8561 16.212C24.7175 16.0733 24.5355 16.004 24.3101 16.004C24.0761 16.004 23.8855 16.0647 23.7381 16.186C23.5995 16.3073 23.5301 16.4807 23.5301 16.706C23.5301 16.966 23.5908 17.1697 23.7121 17.317C23.8421 17.4643 24.0241 17.538 24.2581 17.538ZM25.0381 12.65C24.5875 12.65 24.2451 12.5373 24.0111 12.312C23.7771 12.0867 23.6601 11.818 23.6601 11.506C23.6601 11.09 23.7641 10.7607 23.9721 10.518C24.1888 10.2753 24.4661 10.154 24.8041 10.154C25.2721 10.154 25.6145 10.2623 25.8311 10.479C26.0478 10.6957 26.1561 10.9427 26.1561 11.22C26.1561 11.714 26.0565 12.078 25.8571 12.312C25.6665 12.5373 25.3935 12.65 25.0381 12.65ZM25.5061 23.7L26.5981 22.946C27.1961 23.7347 27.6425 24.3587 27.9371 24.818C28.2405 25.2687 28.3965 25.6153 28.4051 25.858C28.4138 26.1093 28.2881 26.3173 28.0281 26.482C27.7768 26.638 27.5428 26.651 27.3261 26.521C27.1095 26.3997 26.8581 26.1093 26.5721 25.65C26.2948 25.1907 25.9395 24.5407 25.5061 23.7ZM23.4001 24.48L24.7521 24.246C24.9341 25.2427 25.0511 25.9967 25.1031 26.508C25.1551 27.0193 25.1335 27.3703 25.0381 27.561C24.9428 27.7517 24.7695 27.8687 24.5181 27.912C24.2148 27.964 23.9938 27.899 23.8551 27.717C23.7165 27.535 23.6168 27.184 23.5561 26.664C23.5041 26.1527 23.4521 25.4247 23.4001 24.48ZM20.9561 24.064L22.2561 24.558C22.0308 25.3467 21.8358 25.9577 21.6711 26.391C21.5065 26.8243 21.3288 27.106 21.1381 27.236C20.9561 27.366 20.7221 27.3747 20.4361 27.262C20.1848 27.1667 20.0418 26.9977 20.0071 26.755C19.9811 26.521 20.0505 26.1873 20.2151 25.754C20.3798 25.3207 20.6268 24.7573 20.9561 24.064ZM20.1241 22.946C20.1415 22.9287 20.1545 22.9113 20.1631 22.894C20.1805 22.868 20.1935 22.8507 20.2021 22.842C20.2801 22.738 20.3971 22.6947 20.5531 22.712C20.7178 22.7207 20.8695 22.7727 21.0081 22.868C21.1555 22.946 21.2638 23.05 21.3331 23.18C21.4111 23.3013 21.4155 23.4227 21.3461 23.544C21.3375 23.57 21.3201 23.6003 21.2941 23.635C21.2681 23.6697 21.2421 23.7 21.2161 23.726C21.1208 23.856 21.0081 23.9383 20.8781 23.973C20.7568 24.0077 20.6355 24.0033 20.5141 23.96C20.3928 23.9167 20.2888 23.8473 20.2021 23.752C20.1328 23.6827 20.0765 23.6047 20.0331 23.518C19.9985 23.4227 19.9855 23.3273 19.9941 23.232C20.0028 23.1367 20.0461 23.0413 20.1241 22.946ZM19.1621 21.984L20.0201 23.31C19.4221 23.882 18.9411 24.3153 18.5771 24.61C18.2218 24.9047 17.9358 25.065 17.7191 25.091C17.5025 25.1257 17.3075 25.0347 17.1341 24.818C16.9695 24.6187 16.9261 24.402 17.0041 24.168C17.0908 23.934 17.3075 23.648 17.6541 23.31C18.0095 22.9633 18.5121 22.5213 19.1621 21.984Z" fill="#0C46A4"/>
<defs>
<linearGradient id="paint0_linear_5_33" x1="16" y1="0" x2="16" y2="32" gradientUnits="userSpaceOnUse">
<stop offset="0.591346" stop-color="#B8E1F6"/>
<stop offset="1" stop-color="#78CFFF"/>
</linearGradient>
</defs>
</svg>
